<svg xmlns="http://www.w3.org/2000/svg" viewBox="0 0 1500 1500"><defs><style>.cls-1{fill:#6b3245;}.cls-2{fill:#f16667;}.cls-3{fill:none;stroke:#6b3245;stroke-linecap:round;stroke-linejoin:round;stroke-width:22px;}</style></defs><g id="Layer_2" data-name="Layer 2"><g id="textblock"><rect class="cls-1" width="1500" height="1500"/><g id="Layer_1-2" data-name="Layer 1-2"><path class="cls-2" d="M893.65,555c-1.55-20.2-18.58-35.74-38.69-37.3-23.22-1.55-52.64-3.11-80.51-4.66l43.34-43.5a12.07,12.07,0,0,0-17-17.1l-52.64,54.4-38.69-37.3a12.07,12.07,0,1,0-17,17.09l27.87,28c-26.33-1.56-57.29,1.55-80.51,3.11-10.85,0-18.59,4.66-26.32,12.43-6.19,6.21-10.84,14-10.84,24.85-1.54,21.77-4.64,54.41-4.64,77.72s3.1,55.95,4.64,77.7c1.56,20.2,18.58,35.75,38.69,37.3,31,1.56,74.31,4.66,108.37,4.66s77.41-3.1,108.37-4.66c20.13-1.55,37.15-17.1,38.69-37.3,1.55-21.75,4.65-54.39,4.65-77.7S896.74,576.76,893.65,555Z"/><path class="cls-3" d="M680.91,731.77A59.77,59.77,0,0,0,621.14,672h.21m118.16,60.47A119.55,119.55,0,0,0,620,612.93"/></g><g id="textblocktransform"><path id="text-0" class="cls-2" d="M375,800V925.93h-27L299.51,843v82.9H274.33V800h26.94l48.56,83V800Zm101.75,48.73-45,54.17a12.22,12.22,0,0,0,2.81.58c1,.09,1.9.14,2.84.14h0a23.56,23.56,0,0,0,6.76-1,24.58,24.58,0,0,0,6.08-2.77,22.3,22.3,0,0,0,5.11-4.39,23.31,23.31,0,0,0,3.63-5.75h0l17.55,17.66a46.68,46.68,0,0,1-7.66,8.52,47.61,47.61,0,0,1-31.47,11.76h0a47.67,47.67,0,0,1-34-14,48.16,48.16,0,0,1-10.33-15.68,51.85,51.85,0,0,1-3.77-20h0a53.3,53.3,0,0,1,3.77-20.36A47,47,0,0,1,403.53,842a46.44,46.44,0,0,1,15.28-10.1,48.55,48.55,0,0,1,18.67-3.6h0a47.34,47.34,0,0,1,11.47,1.4,46.77,46.77,0,0,1,10.68,4.07,48.69,48.69,0,0,1,9.43,6.43,46.46,46.46,0,0,1,7.73,8.56Zm-60.57,41.8,27.91-37a13.66,13.66,0,0,0-3.27-.79,31.2,31.2,0,0,0-3.38-.18h0a24,24,0,0,0-9.28,1.8,21.88,21.88,0,0,0-7.55,5.14,24.2,24.2,0,0,0-5,8,28.41,28.41,0,0,0-1.87,10.58h0c0,.88.05,1.88.14,3s.24,2.26.44,3.38.46,2.26.75,3.31a11.55,11.55,0,0,0,1.15,2.81Zm191.31-58.48v59.88a34.77,34.77,0,0,1-2.81,13.92,35.66,35.66,0,0,1-7.66,11.37,36.55,36.55,0,0,1-11.43,7.66,35.17,35.17,0,0,1-14,2.8h0a35.8,35.8,0,0,1-12.84-2.34,35.4,35.4,0,0,1-11.15-6.79h0a34.44,34.44,0,0,1-11,6.79,35.74,35.74,0,0,1-12.88,2.34h0a34.87,34.87,0,0,1-13.95-2.8,36.28,36.28,0,0,1-11.37-7.66,35.42,35.42,0,0,1-7.69-11.37,34.94,34.94,0,0,1-2.81-13.92h0V832.06h24v59.88a11.61,11.61,0,0,0,.9,4.6,12,12,0,0,0,6.33,6.33,11.34,11.34,0,0,0,4.6.94h0a11.68,11.68,0,0,0,4.68-.94,12.43,12.43,0,0,0,3.85-2.55,12,12,0,0,0,2.59-3.78,11.29,11.29,0,0,0,.93-4.6h0V832.06h23.88v59.88a10.85,10.85,0,0,0,1,4.6,11.76,11.76,0,0,0,2.58,3.78,12,12,0,0,0,3.78,2.55,11.21,11.21,0,0,0,4.61.94h0a11.55,11.55,0,0,0,4.63-.94,12.1,12.1,0,0,0,6.41-6.33,11,11,0,0,0,1-4.6h0V832.06Zm72.8-6.84V925.93H655.22V825.22H617.39V800h100.7v25.21ZM805,878.06h0a50.72,50.72,0,0,1-3.77,19.64,48.19,48.19,0,0,1-25.54,26.18A46.38,46.38,0,0,1,757,927.69h0a46.14,46.14,0,0,1-18.66-3.81,48.43,48.43,0,0,1-25.58-26.18A50.9,50.9,0,0,1,709,878.06h0a51.52,51.52,0,0,1,3.77-19.82,48.86,48.86,0,0,1,10.33-15.79,47.56,47.56,0,0,1,15.25-10.39A46.45,46.45,0,0,1,757,828.28h0a49.26,49.26,0,0,1,18.74,3.56A45.28,45.28,0,0,1,791,842a47.83,47.83,0,0,1,10.29,15.71A53.1,53.1,0,0,1,805,878.06Zm-24.17,0h0A27.93,27.93,0,0,0,779,867.59a25.15,25.15,0,0,0-5.14-8.09,22,22,0,0,0-7.59-5.18,24,24,0,0,0-9.28-1.8h0a23.78,23.78,0,0,0-9.24,1.8,21.58,21.58,0,0,0-7.55,5.18,24.35,24.35,0,0,0-5.08,8.09,28.54,28.54,0,0,0-1.83,10.47h0a27.27,27.27,0,0,0,1.83,10.1,24.91,24.91,0,0,0,5.08,8.1,23.73,23.73,0,0,0,7.55,5.39,21.91,21.91,0,0,0,9.24,2h0a23.23,23.23,0,0,0,16.87-7,24.66,24.66,0,0,0,5.14-8.1A28.21,28.21,0,0,0,780.85,878.06Zm61.36-3.92v51.79h-24v-94h5.79L832,843a42.24,42.24,0,0,1,28.45-11h21.15v23.88H860.41a18.34,18.34,0,0,0-7.12,1.4,17.57,17.57,0,0,0-5.79,3.89,18.47,18.47,0,0,0-5.29,12.91Zm74.49,0v51.79h-24v-94h5.79L906.42,843a42.19,42.19,0,0,1,28.45-11H956v23.88H934.87a18.35,18.35,0,0,0-7.13,1.4,17.57,17.57,0,0,0-5.79,3.89A17.94,17.94,0,0,0,918.1,867a18.3,18.3,0,0,0-1.4,7.12Zm131.07-25.4-45,54.17a12.14,12.14,0,0,0,2.8.58c.94.09,1.88.14,2.84.14h0a23.63,23.63,0,0,0,6.77-1,24.51,24.51,0,0,0,6.07-2.77,22.3,22.3,0,0,0,5.11-4.39,22.74,22.74,0,0,0,3.63-5.75h0l17.56,17.66a46.37,46.37,0,0,1-7.67,8.52,47.58,47.58,0,0,1-20,10.4,48,48,0,0,1-11.44,1.36h0a47.71,47.71,0,0,1-34-14,48.29,48.29,0,0,1-10.32-15.68,51.67,51.67,0,0,1-3.78-20h0a53.11,53.11,0,0,1,3.78-20.36A47.12,47.12,0,0,1,974.5,842a46.38,46.38,0,0,1,15.29-10.1,48.5,48.5,0,0,1,18.66-3.6h0a47.48,47.48,0,0,1,22.16,5.47,48.32,48.32,0,0,1,9.42,6.43,46.52,46.52,0,0,1,7.74,8.56Zm-60.57,41.8,27.91-37a13.85,13.85,0,0,0-3.28-.79,31.2,31.2,0,0,0-3.38-.18h0a24.09,24.09,0,0,0-9.28,1.8,21.88,21.88,0,0,0-7.55,5.14,24.34,24.34,0,0,0-5,8,28.41,28.41,0,0,0-1.87,10.58h0c0,.88,0,1.88.14,3s.24,2.26.43,3.38.47,2.26.76,3.31a11.17,11.17,0,0,0,1.15,2.81Zm96.57-18.34v53.73h-24v-94h5.79l7.88,9.13a43.11,43.11,0,0,1,13.13-8.13,42.15,42.15,0,0,1,15.32-2.84h0a40.31,40.31,0,0,1,16.26,3.31,41.84,41.84,0,0,1,13.34,9,42.49,42.49,0,0,1,9,13.45,40.77,40.77,0,0,1,3.31,16.37h0v53.73h-24V872.2a17.44,17.44,0,0,0-1.4-7,17.86,17.86,0,0,0-3.85-5.76,17.67,17.67,0,0,0-5.72-3.88,17.15,17.15,0,0,0-6.94-1.4h0a17.82,17.82,0,0,0-7.08,1.4,18,18,0,0,0-11.08,16.62ZM1225,925.93h-18.2a40.46,40.46,0,0,1-16.32-3.31,42.13,42.13,0,0,1-13.38-9,42.74,42.74,0,0,1-9.07-13.38,41.13,41.13,0,0,1-3.27-16.33h0V855.94H1153V832.06h11.69V794.47h23.88v37.59H1225v23.88h-36.36v27.94a17.78,17.78,0,0,0,1.4,7,18,18,0,0,0,3.85,5.76,19.53,19.53,0,0,0,5.79,3.92,17.84,17.84,0,0,0,7.12,1.44H1225Z"/><path id="text-1" class="cls-2" d="M299.19,1050.85a28.72,28.72,0,0,1-11.67-2.28,19.12,19.12,0,0,1-8.15-6.43,16.39,16.39,0,0,1-3-9.73h11.3a10.17,10.17,0,0,0,3.3,6.86q2.89,2.68,8.18,2.68h0q5.47,0,8.53-2.65a8.56,8.56,0,0,0,3-6.79h0a7.43,7.43,0,0,0-1.89-5.28,12.72,12.72,0,0,0-4.72-3.15,70.87,70.87,0,0,0-7.84-2.41h0a71.08,71.08,0,0,1-10.22-3.39,16.85,16.85,0,0,1-6.73-5.32q-2.78-3.62-2.78-9.63h0a17.15,17.15,0,0,1,2.78-9.73,17.74,17.74,0,0,1,7.78-6.39A28.34,28.34,0,0,1,298.73,985h0q9.36,0,15.34,4.67a17.26,17.26,0,0,1,6.61,12.83H309a8.44,8.44,0,0,0-3.33-6,12.38,12.38,0,0,0-8.06-2.5h0a11.38,11.38,0,0,0-7.41,2.32,8.05,8.05,0,0,0-2.87,6.67h0a6.72,6.72,0,0,0,1.81,4.85,12.67,12.67,0,0,0,4.58,3,72.37,72.37,0,0,0,7.59,2.41h0a79.21,79.21,0,0,1,10.43,3.52,17.48,17.48,0,0,1,6.86,5.41q2.82,3.66,2.81,9.78h0a17.55,17.55,0,0,1-2.63,9.26,19.11,19.11,0,0,1-7.68,7,25.58,25.58,0,0,1-11.92,2.63Zm63.4-43.08H350.18V1036a5.38,5.38,0,0,0,1.35,4.11c.89.84,2.41,1.26,4.57,1.26h6.49v8.8h-8.34q-7.12,0-10.93-3.34t-3.8-10.83h0v-28.26h-6v-8.61h6V986.47h10.66v12.69h12.41Zm24.21-1.2a16.73,16.73,0,0,1,6.17-6.08,18.31,18.31,0,0,1,9.12-2.16h0v10.93H399.4q-6.21,0-9.39,3.15t-3.21,10.93h0v26.86H376.24v-51H386.8Zm75.73,16.86a32.79,32.79,0,0,1-.37,5.19h-39a14.15,14.15,0,0,0,4.54,9.81,14.31,14.31,0,0,0,10,3.71h0q8.52,0,12-7.13h11.39a22.91,22.91,0,0,1-8.39,11.52q-6.06,4.5-15,4.5h0a26.07,26.07,0,0,1-13.12-3.3,23.29,23.29,0,0,1-9.07-9.26,28.24,28.24,0,0,1-3.28-13.84h0a29,29,0,0,1,3.18-13.85,22.6,22.6,0,0,1,9-9.21,26.79,26.79,0,0,1,13.3-3.24h0a26,26,0,0,1,12.88,3.15,22.22,22.22,0,0,1,8.79,8.83,26.72,26.72,0,0,1,3.15,13.12Zm-39.27-3.34h28.25a12,12,0,0,0-4.17-9.35,14.86,14.86,0,0,0-10.09-3.52h0a13.57,13.57,0,0,0-9.36,3.46,14.55,14.55,0,0,0-4.63,9.41Zm50.06,4.36a28.35,28.35,0,0,1,3.18-13.62,23.26,23.26,0,0,1,20.9-12.5h0a22.28,22.28,0,0,1,10.5,2.35,21.36,21.36,0,0,1,7.19,5.89h0v-7.41h10.65v51H515.09v-7.6a20.87,20.87,0,0,1-7.32,6,22.46,22.46,0,0,1-10.56,2.41h0a22.42,22.42,0,0,1-12-3.39,24,24,0,0,1-8.67-9.45,29.12,29.12,0,0,1-3.18-13.74Zm41.77.18a18.51,18.51,0,0,0-2.18-9.17,15.34,15.34,0,0,0-5.69-5.93,15,15,0,0,0-7.6-2h0a15,15,0,0,0-13.3,7.83,18.31,18.31,0,0,0-2.17,9.12h0a19.14,19.14,0,0,0,2.17,9.26,15.42,15.42,0,0,0,5.74,6.06,14.82,14.82,0,0,0,7.56,2.09h0a14.91,14.91,0,0,0,7.6-2,15.21,15.21,0,0,0,5.69-6,18.72,18.72,0,0,0,2.18-9.21Zm90.26-26.3a22.79,22.79,0,0,1,10.78,2.5,17.85,17.85,0,0,1,7.5,7.41,23.92,23.92,0,0,1,2.74,11.85h0v30.11H615.91v-28.53q0-6.85-3.43-10.52t-9.35-3.65h0a12.39,12.39,0,0,0-9.42,3.65q-3.47,3.66-3.46,10.52h0v28.53H579.78v-28.53q0-6.85-3.42-10.52T567,1007.5h0a12.37,12.37,0,0,0-9.41,3.65q-3.47,3.66-3.47,10.52h0v28.53H543.57v-51h10.55V1005a17.58,17.58,0,0,1,6.58-4.91,20.77,20.77,0,0,1,8.52-1.76h0a22.66,22.66,0,0,1,10.93,2.59,17.75,17.75,0,0,1,7.41,7.5h0a17.28,17.28,0,0,1,7.23-7.37,21.36,21.36,0,0,1,10.56-2.72Zm95.76,52.52a33.23,33.23,0,0,1-16.53-4.23,31,31,0,0,1-12-11.76,33,33,0,0,1-4.41-17h0a32.81,32.81,0,0,1,4.41-17,31.38,31.38,0,0,1,12-11.73,33.42,33.42,0,0,1,16.53-4.2h0a33.66,33.66,0,0,1,16.63,4.2,31.18,31.18,0,0,1,11.9,11.73,33.16,33.16,0,0,1,4.35,17h0a33.39,33.39,0,0,1-4.35,17,30.84,30.84,0,0,1-11.9,11.76,33.47,33.47,0,0,1-16.63,4.23Zm0-9.17a22.13,22.13,0,0,0,11.39-2.93,20.26,20.26,0,0,0,7.84-8.34,26.83,26.83,0,0,0,2.81-12.54h0a26.64,26.64,0,0,0-2.81-12.5,20.08,20.08,0,0,0-7.84-8.25,22.49,22.49,0,0,0-11.39-2.87h0a22.55,22.55,0,0,0-11.4,2.87,19.89,19.89,0,0,0-7.81,8.25,26.4,26.4,0,0,0-2.84,12.5h0a26.6,26.6,0,0,0,2.84,12.54,20.07,20.07,0,0,0,7.81,8.34,22.19,22.19,0,0,0,11.4,2.93Zm72.95-43.35a22.79,22.79,0,0,1,10.78,2.5,17.67,17.67,0,0,1,7.47,7.41,24.36,24.36,0,0,1,2.68,11.85h0v30.11H784.53v-28.53q0-6.85-3.43-10.52t-9.35-3.65h0a12.39,12.39,0,0,0-9.42,3.65q-3.47,3.66-3.46,10.52h0v28.53H748.31v-51h10.56V1005a17.45,17.45,0,0,1,6.61-4.91,21.18,21.18,0,0,1,8.58-1.76Zm59.32-12.51a39.23,39.23,0,0,1,18,3.93,28.23,28.23,0,0,1,12,11.3,34,34,0,0,1,4.22,17.19h0a33.18,33.18,0,0,1-4.22,17,27.7,27.7,0,0,1-12,11.06,39.87,39.87,0,0,1-18,3.86h-21V985.82Zm0,55.76q11.29,0,17.32-6.11t6-17.23h0q0-11.21-6-17.51t-17.32-6.29H822.91v47.14Zm95.35-18.15a32.79,32.79,0,0,1-.37,5.19h-39a14.19,14.19,0,0,0,4.54,9.81,14.34,14.34,0,0,0,10,3.71h0q8.52,0,12-7.13h11.39a22.91,22.91,0,0,1-8.39,11.52q-6.06,4.5-15,4.5h0a26.07,26.07,0,0,1-13.12-3.3,23.38,23.38,0,0,1-9.08-9.26,28.35,28.35,0,0,1-3.28-13.84h0a29,29,0,0,1,3.19-13.85,22.54,22.54,0,0,1,9-9.21,26.79,26.79,0,0,1,13.3-3.24h0a26,26,0,0,1,12.87,3.15,22.25,22.25,0,0,1,8.8,8.83,26.72,26.72,0,0,1,3.15,13.12Zm-39.27-3.34h28.25a12,12,0,0,0-4.17-9.35,14.89,14.89,0,0,0-10.1-3.52h0a13.56,13.56,0,0,0-9.35,3.46,14.5,14.5,0,0,0-4.63,9.41Zm115.36-21.76a22.93,22.93,0,0,1,10.8,2.5,18.08,18.08,0,0,1,7.5,7.41,24.14,24.14,0,0,1,2.72,11.85h0v30.11h-10.46v-28.53q0-6.85-3.43-10.52c-2.29-2.44-5.4-3.65-9.36-3.65h0q-5.93,0-9.39,3.65t-3.48,10.52h0v28.53H979.25v-28.53q0-6.85-3.43-10.52t-9.35-3.65h0q-5.93,0-9.39,3.65t-3.49,10.52h0v28.53H943v-51h10.56V1005a17.5,17.5,0,0,1,6.58-4.91,20.73,20.73,0,0,1,8.52-1.76h0a22.66,22.66,0,0,1,10.93,2.59,17.75,17.75,0,0,1,7.41,7.5h0a17.22,17.22,0,0,1,7.23-7.37,21.36,21.36,0,0,1,10.56-2.72Zm34.86,26.12a28.14,28.14,0,0,1,3.21-13.62,23.23,23.23,0,0,1,20.87-12.5h0a22.4,22.4,0,0,1,10.53,2.35,21.38,21.38,0,0,1,7.17,5.89h0v-7.41h10.65v51h-10.65v-7.6a20.87,20.87,0,0,1-7.32,6,22.51,22.51,0,0,1-10.56,2.41h0a22.37,22.37,0,0,1-12-3.39,23.77,23.77,0,0,1-8.65-9.45,28.9,28.9,0,0,1-3.21-13.74Zm41.78.18a18.62,18.62,0,0,0-2.17-9.17,15.39,15.39,0,0,0-5.71-5.93,15,15,0,0,0-7.59-2h0a15.26,15.26,0,0,0-7.6,2,15,15,0,0,0-5.69,5.85,18.21,18.21,0,0,0-2.18,9.12h0a19,19,0,0,0,2.18,9.26,15.23,15.23,0,0,0,5.75,6.06,14.67,14.67,0,0,0,7.54,2.09h0a14.87,14.87,0,0,0,7.59-2,15.26,15.26,0,0,0,5.71-6,18.83,18.83,0,0,0,2.17-9.21Zm54.22-26.3a22.93,22.93,0,0,1,10.8,2.5,17.69,17.69,0,0,1,7.45,7.41,24.36,24.36,0,0,1,2.68,11.85h0v30.11h-10.46v-28.53q0-6.85-3.43-10.52t-9.35-3.65h0q-5.94,0-9.4,3.65t-3.48,10.52h0v28.53h-10.56v-51h10.56V1005a17.45,17.45,0,0,1,6.63-4.91,21,21,0,0,1,8.56-1.76Zm34.79,26.12a28.24,28.24,0,0,1,3.19-13.62,23.26,23.26,0,0,1,21-12.5h0a24,24,0,0,1,9.85,2.16,20.32,20.32,0,0,1,7.75,5.8h0V981.65h10.65v68.55h-10.65v-7.69a19.73,19.73,0,0,1-7.19,6.11,22.15,22.15,0,0,1-10.5,2.41h0a22.83,22.83,0,0,1-12.19-3.39,23.91,23.91,0,0,1-8.71-9.45,29,29,0,0,1-3.19-13.74Zm41.78.18a18.41,18.41,0,0,0-2.19-9.17,15.2,15.2,0,0,0-5.69-5.93,14.94,14.94,0,0,0-7.59-2h0a15.26,15.26,0,0,0-7.6,2,15.07,15.07,0,0,0-5.7,5.85,18.21,18.21,0,0,0-2.17,9.12h0a19,19,0,0,0,2.17,9.26,15.35,15.35,0,0,0,5.74,6.06,14.76,14.76,0,0,0,7.56,2.09h0a14.85,14.85,0,0,0,7.59-2,15.08,15.08,0,0,0,5.69-6,18.62,18.62,0,0,0,2.19-9.21Z"/></g></g></g></svg>